<svg xmlns="http://www.w3.org/2000/svg" width="40.08" height="28.056" viewBox="0 0 40.08 28.056">
  <path id="keyboard_FILL0_wght400_GRAD0_opsz48" d="M7.006,35.05H41.074V13.006H7.006Zm0,3.006a2.847,2.847,0,0,1-2.1-.927A2.912,2.912,0,0,1,4,35.05V13.006a2.884,2.884,0,0,1,.9-2.1,2.884,2.884,0,0,1,2.1-.9H41.074a3.082,3.082,0,0,1,3.006,3.006V35.05a2.912,2.912,0,0,1-.9,2.079,2.847,2.847,0,0,1-2.1.927ZM22.537,19.268h3.006V16.262H22.537Zm0,6.262h3.006V22.525H22.537Zm-6.162-6.262h3.006V16.262H16.375Zm0,6.262h3.006V22.525H16.375Zm-6.212,0h3.006V22.525H10.162Zm0-6.262h3.006V16.262H10.162Zm4.86,12.525H33.058V28.787H15.022Zm13.727-6.262h3.006V22.525H28.749Zm0-6.262h3.006V16.262H28.749Zm6.162,6.262h3.006V22.525H34.911Zm0-6.262h3.006V16.262H34.911ZM7.006,35.05v0Z" transform="translate(-4 -10)" fill="#183ee4"/>
</svg>
