<svg xmlns="http://www.w3.org/2000/svg" width="40.08" height="40.08" viewBox="0 0 40.08 40.08">
  <path id="paid_FILL0_wght400_GRAD0_opsz48" d="M22.587,38.418h2.755V35.813A8.372,8.372,0,0,0,30.1,33.935a5.215,5.215,0,0,0,1.7-4.083,5.954,5.954,0,0,0-1.453-4.158,13.97,13.97,0,0,0-4.91-3.056,21.5,21.5,0,0,1-4.208-2.154,3.006,3.006,0,0,1-1.3-2.555,2.976,2.976,0,0,1,1.127-2.455,4.8,4.8,0,0,1,3.081-.9,4.748,4.748,0,0,1,2.605.7,5.486,5.486,0,0,1,1.854,2.1L31,16.224a7.129,7.129,0,0,0-2.254-2.755,6.805,6.805,0,0,0-3.307-1.2V9.711H22.687v2.555a6.675,6.675,0,0,0-4.033,1.879,5.229,5.229,0,0,0-1.478,3.783,5.183,5.183,0,0,0,1.5,3.908,14.563,14.563,0,0,0,4.509,2.705,17.4,17.4,0,0,1,4.609,2.53,3.594,3.594,0,0,1,1.252,2.781,3.053,3.053,0,0,1-1.328,2.58,5.47,5.47,0,0,1-3.332.977,5.8,5.8,0,0,1-3.482-1.1A5.714,5.714,0,0,1,18.779,29.3l-2.555.852a10.491,10.491,0,0,0,2.58,3.632,9.334,9.334,0,0,0,3.783,1.929ZM24.04,44.08A19.39,19.39,0,0,1,16.274,42.5a20.19,20.19,0,0,1-10.7-10.7,20.018,20.018,0,0,1,0-15.581A20.027,20.027,0,0,1,9.887,9.862a20.543,20.543,0,0,1,6.388-4.284,20.018,20.018,0,0,1,15.581,0A20.009,20.009,0,0,1,42.5,16.224a20.018,20.018,0,0,1,0,15.581,20.543,20.543,0,0,1-4.284,6.388A20.027,20.027,0,0,1,31.855,42.5,19.514,19.514,0,0,1,24.04,44.08Zm0-3.006a16.391,16.391,0,0,0,12.074-4.985,16.457,16.457,0,0,0,4.96-12.049,16.433,16.433,0,0,0-4.96-12.074A16.433,16.433,0,0,0,24.04,7.006a16.457,16.457,0,0,0-12.049,4.96A16.391,16.391,0,0,0,7.006,24.04a16.415,16.415,0,0,0,4.985,12.049A16.415,16.415,0,0,0,24.04,41.074ZM24.04,24.04Z" transform="translate(-4 -4)" fill="#183ee4"/>
</svg>
