<svg xmlns="http://www.w3.org/2000/svg" width="32.064" height="40.08" viewBox="0 0 32.064 40.08">
  <path id="verified_user_FILL0_wght400_GRAD0_opsz48" d="M21.827,30.7,33.25,19.28l-2.1-2.054-9.168,9.168-5.06-5.06-2.2,2.2Zm2.2,13.326a19.674,19.674,0,0,1-11.523-8.141A23.762,23.762,0,0,1,8,21.886V9.962L24.032,3.95,40.064,9.962V21.886a23.762,23.762,0,0,1-4.509,14A19.674,19.674,0,0,1,24.032,44.03ZM24.032,24.591Zm0,16.332a18.074,18.074,0,0,0,9.394-7.189,20.441,20.441,0,0,0,3.632-11.849v-9.82L24.032,7.156l-13.026,4.91v9.82a20.441,20.441,0,0,0,3.632,11.849A18.074,18.074,0,0,0,24.032,40.924Z" transform="translate(-8 -3.95)" fill="#183ee4"/>
</svg>
